<svg width="200" height="59" viewBox="0 0 200 59" fill="none" xmlns="http://www.w3.org/2000/svg">
<g clip-path="url(#clip0_334_12)">
<path d="M28.13 18.87C28.13 21.4 26.08 23.44 23.56 23.44H21.27V10.4C21.27 6 24.77 2.35 29.16 2.29C30.43 2.27 31.63 2.55 32.7 3.06C30 4.34 28.13 7.1 28.13 10.29V18.87ZM9.15004 29.16C9.15004 24.74 12.73 21.15 17.16 21.15H10.3C5.88004 21.15 2.29004 24.73 2.29004 29.16C2.29004 33.59 5.87004 37.17 10.3 37.17H17.16C12.74 37.17 9.15004 33.59 9.15004 29.16ZM28.13 48.26V39.45C28.13 36.92 26.08 34.88 23.56 34.88H21.27V48.15C21.27 52.55 24.77 56.2 29.16 56.26C30.43 56.28 31.63 56 32.7 55.49C30 54.21 28.13 51.45 28.13 48.26Z" fill="#7ED7C1"/>
<path d="M29.28 58.55C23.6 58.55 18.99 53.93 18.99 48.26V39.45H10.29C4.61 39.45 0 34.83 0 29.16C0 23.49 4.62 18.87 10.29 18.87H18.98V10.29C18.98 4.62 23.6 0 29.28 0C34.96 0 39.57 4.62 39.57 10.29V18.87H48.26C53.94 18.87 58.55 23.49 58.55 29.16C58.55 30.42 57.53 31.45 56.26 31.45C54.99 31.45 53.97 30.43 53.97 29.16C53.97 26.01 51.4 23.44 48.25 23.44H37.27C36.01 23.44 34.98 22.42 34.98 21.15V10.29C34.98 7.14 32.41 4.57 29.26 4.57C26.11 4.57 23.54 7.14 23.54 10.29V21.15C23.54 22.41 22.52 23.44 21.25 23.44H10.29C7.14 23.44 4.57 26.01 4.57 29.16C4.57 32.31 7.14 34.88 10.29 34.88H21.27C22.53 34.88 23.56 35.9 23.56 37.17V48.26C23.56 51.41 26.13 53.98 29.28 53.98C32.43 53.98 35 51.41 35 48.26V37.17C35 35.91 36.02 34.88 37.29 34.88C38.56 34.88 39.58 35.9 39.58 37.17V48.26C39.58 53.94 34.96 58.55 29.29 58.55H29.28Z" fill="#2D9596"/>
<path d="M48.2602 39.46H46.2002C44.9402 39.46 43.9102 38.44 43.9102 37.17C43.9102 35.9 44.9302 34.88 46.2002 34.88H48.2602C49.0302 34.88 49.7902 34.71 50.5502 34.39C51.7102 33.88 53.0602 34.41 53.5602 35.57C54.0702 36.73 53.5402 38.08 52.3802 38.58C51.0502 39.16 49.6602 39.46 48.2602 39.46Z" fill="#7ED7C1"/>
<path d="M192.032 31.9575H189.031V28.6964H192.032V21.7666L196.072 20.8772V28.6964H200V31.9575H196.072V45.7061H192.032V31.9575Z" fill="#FAFAFA"/>
<path d="M178.868 46.0766C176.842 46.0766 175.15 45.6814 173.791 44.8908C172.433 44.0755 171.432 43.0008 170.79 41.6667C170.147 40.3079 169.826 38.8256 169.826 37.2198C169.826 35.4163 170.197 33.8351 170.938 32.4763C171.704 31.1176 172.754 30.0799 174.088 29.3635C175.422 28.6223 176.929 28.2517 178.609 28.2517C181.228 28.2517 183.167 28.9805 184.427 30.4382C185.712 31.8711 186.354 33.8969 186.354 36.5157C186.354 37.1827 186.317 37.8745 186.243 38.5909H174.014C174.285 40.0979 174.817 41.185 175.607 41.852C176.423 42.5191 177.547 42.8526 178.98 42.8526C180.165 42.8526 181.141 42.7538 181.907 42.5561C182.673 42.3585 183.377 42.0867 184.019 41.7409L185.242 44.5943C184.625 44.9896 183.785 45.3355 182.722 45.6319C181.66 45.9284 180.375 46.0766 178.868 46.0766ZM182.463 35.8116C182.488 34.2798 182.154 33.2052 181.462 32.5875C180.771 31.9452 179.782 31.624 178.498 31.624C175.904 31.624 174.409 33.0199 174.014 35.8116H182.463Z" fill="#FAFAFA"/>
<path d="M156.581 54.6C155.321 54.6 154.073 54.4271 152.838 54.0812C151.627 53.7353 150.763 53.4141 150.244 53.1177L151.133 49.4119C152.764 50.4742 154.543 51.0054 156.47 51.0054C157.952 51.0054 159.2 50.6471 160.213 49.9307C161.226 49.2142 161.744 47.8184 161.769 45.7431V42.7044C161.25 43.6679 160.41 44.4708 159.249 45.1131C158.088 45.7555 156.803 46.0766 155.395 46.0766C153.913 46.0766 152.554 45.7184 151.319 45.002C150.083 44.2608 149.108 43.2108 148.391 41.852C147.675 40.4932 147.316 38.9121 147.316 37.1086C147.316 35.3792 147.65 33.8475 148.317 32.5134C149.009 31.1546 149.985 30.1046 151.245 29.3635C152.505 28.6223 153.974 28.2517 155.654 28.2517C156.643 28.2517 157.569 28.4247 158.434 28.7705C159.299 29.1164 160.027 29.5488 160.62 30.0676C161.238 30.5617 161.646 31.0558 161.843 31.5499L161.917 28.6964H165.697V45.5949C165.697 48.4854 164.956 50.7089 163.474 52.2653C161.991 53.8218 159.694 54.6 156.581 54.6ZM156.507 42.7044C157.915 42.7044 159.101 42.2226 160.064 41.2591C161.028 40.2709 161.51 38.9862 161.51 37.4051V37.1457C161.51 36.0833 161.287 35.1322 160.843 34.2922C160.398 33.4522 159.793 32.7975 159.027 32.3281C158.261 31.8587 157.421 31.624 156.507 31.624C154.926 31.624 153.703 32.1428 152.838 33.1804C151.973 34.1934 151.541 35.5151 151.541 37.1457C151.541 38.8009 151.961 40.1474 152.801 41.185C153.666 42.1979 154.901 42.7044 156.507 42.7044Z" fill="#FAFAFA"/>
<path d="M138.626 28.6964H142.776V45.7061H138.626V28.6964ZM140.664 25.5094C139.898 25.5094 139.256 25.25 138.737 24.7312C138.218 24.2124 137.958 23.5701 137.958 22.8042C137.958 22.1124 138.218 21.5195 138.737 21.0254C139.256 20.5313 139.898 20.2842 140.664 20.2842C141.405 20.2842 142.035 20.5313 142.554 21.0254C143.073 21.5195 143.332 22.1124 143.332 22.8042C143.332 23.5701 143.073 24.2124 142.554 24.7312C142.06 25.25 141.43 25.5094 140.664 25.5094Z" fill="#FAFAFA"/>
<path d="M123.088 46.0767C121.557 46.0767 120.136 45.7184 118.827 45.002C117.542 44.2608 116.504 43.2232 115.714 41.8891C114.948 40.5303 114.565 38.9492 114.565 37.1457C114.565 34.4528 115.318 32.3034 116.825 30.6976C118.333 29.067 120.371 28.2517 122.94 28.2517C124.373 28.2517 125.682 28.61 126.868 29.3264C128.054 30.0182 128.857 30.8581 129.277 31.8464L129.092 28.9558V18.4684H133.02V45.7061H129.203L129.129 42.7044C128.709 43.5938 127.943 44.3843 126.831 45.0761C125.719 45.7431 124.472 46.0767 123.088 46.0767ZM123.755 42.7044C125.164 42.7044 126.349 42.2226 127.313 41.2591C128.276 40.2709 128.758 38.9862 128.758 37.4051V37.1457C128.758 36.0833 128.536 35.1322 128.091 34.2922C127.646 33.4522 127.041 32.7975 126.275 32.3281C125.509 31.8587 124.669 31.624 123.755 31.624C122.174 31.624 120.951 32.1428 120.087 33.1805C119.222 34.1934 118.79 35.5151 118.79 37.1457C118.79 38.8009 119.21 40.1474 120.05 41.185C120.914 42.1979 122.149 42.7044 123.755 42.7044Z" fill="#FAFAFA"/>
<path d="M103.884 46.0766C101.858 46.0766 100.166 45.6814 98.807 44.8908C97.4482 44.0755 96.4476 43.0008 95.8053 41.6667C95.163 40.3079 94.8418 38.8256 94.8418 37.2198C94.8418 35.4163 95.2124 33.8351 95.9535 32.4763C96.7194 31.1176 97.7694 30.0799 99.1035 29.3635C100.438 28.6223 101.945 28.2517 103.625 28.2517C106.243 28.2517 108.183 28.9805 109.443 30.4382C110.727 31.8711 111.37 33.8969 111.37 36.5157C111.37 37.1827 111.333 37.8745 111.259 38.5909H99.0294C99.3011 40.0979 99.8323 41.185 100.623 41.852C101.438 42.5191 102.562 42.8526 103.995 42.8526C105.181 42.8526 106.157 42.7538 106.923 42.5561C107.689 42.3585 108.393 42.0867 109.035 41.7409L110.258 44.5943C109.64 44.9896 108.8 45.3355 107.738 45.6319C106.676 45.9284 105.391 46.0766 103.884 46.0766ZM107.479 35.8116C107.503 34.2798 107.17 33.2052 106.478 32.5875C105.786 31.9452 104.798 31.624 103.513 31.624C100.919 31.624 99.4246 33.0199 99.0294 35.8116H107.479Z" fill="#FAFAFA"/>
<path d="M69.9561 32.9952L68.2515 29.1411L67.4732 32.9952L64.9533 45.7061H60.8398L66.4727 18.4684H66.9174L74.4031 33.1805L76.6266 38.1092L78.85 33.1805L86.1875 18.4684H86.5952L92.4503 45.7061H88.374L85.6317 32.9952L84.8164 29.1411L83.3341 32.9952L76.7377 45.7061H76.5154L69.9561 32.9952Z" fill="#FAFAFA"/>
</g>
<defs>
<clipPath id="clip0_334_12">
<rect width="200" height="59" fill="white"/>
</clipPath>
</defs>
</svg>
