<svg xmlns="http://www.w3.org/2000/svg" width="88" height="88" viewBox="0 0 88 88"><rect width="100%" height="100%" fill="#EEE"/><path fill="#31343C" d="M21.55 48.365q.49 0 .86-.14t.62-.38q.25-.25.38-.6.13-.34.13-.74 0-.95-.53-1.44t-1.46-.49q-.93 0-1.45.49-.53.49-.53 1.44 0 .4.13.74.12.35.38.6.25.24.62.38.36.14.85.14Zm0-8.79q-.44 0-.76.14-.32.13-.53.36-.21.23-.31.53-.1.29-.1.62 0 .34.08.67.09.32.29.57.2.26.52.41.33.15.81.15.48 0 .81-.15.33-.15.53-.41.2-.25.28-.57.09-.33.09-.67 0-.33-.11-.62-.1-.3-.31-.53-.21-.23-.53-.36-.32-.14-.76-.14Zm1.95 4.18q1.06.34 1.56 1.05.51.71.51 1.73 0 .77-.29 1.39-.3.63-.82 1.07-.53.44-1.27.68-.74.24-1.64.24-.89 0-1.63-.24-.74-.24-1.27-.68-.53-.44-.82-1.07-.29-.62-.29-1.39 0-1.02.5-1.73t1.56-1.05q-.84-.35-1.26-1-.42-.65-.42-1.56 0-.66.27-1.23.27-.56.75-.98.48-.42 1.14-.66.67-.24 1.47-.24.8 0 1.47.24.67.24 1.15.66.48.42.75.98.26.57.26 1.23 0 .91-.42 1.56t-1.26 1Zm7.33 4.61q.49 0 .86-.14t.62-.38q.25-.25.38-.6.13-.34.13-.74 0-.95-.53-1.44t-1.46-.49q-.93 0-1.45.49-.53.49-.53 1.44 0 .4.13.74.12.35.38.6.25.24.62.38.36.14.85.14Zm0-8.79q-.44 0-.76.14-.32.13-.53.36-.21.23-.31.53-.1.29-.1.62 0 .34.08.67.09.32.29.57.2.26.52.41.33.15.81.15.48 0 .81-.15.33-.15.53-.41.2-.25.28-.57.09-.33.09-.67 0-.33-.11-.62-.1-.3-.31-.53-.21-.23-.53-.36-.32-.14-.76-.14Zm1.95 4.18q1.06.34 1.56 1.05.51.71.51 1.73 0 .77-.29 1.39-.3.63-.82 1.07-.53.44-1.27.68-.74.24-1.64.24-.89 0-1.63-.24-.74-.24-1.27-.68-.53-.44-.82-1.07-.29-.62-.29-1.39 0-1.02.5-1.73t1.56-1.05q-.84-.35-1.26-1-.42-.65-.42-1.56 0-.66.27-1.23.27-.56.75-.98.48-.42 1.14-.66.67-.24 1.47-.24.8 0 1.47.24.67.24 1.15.66.48.42.75.98.26.57.26 1.23 0 .91-.42 1.56t-1.26 1Zm15 3.38-1.05 1.03-2.71-2.71-2.74 2.73-1.05-1.03 2.74-2.75-2.61-2.6 1.04-1.04 2.61 2.6 2.59-2.59 1.06 1.04-2.6 2.6 2.72 2.72Zm9.39 1.23q.49 0 .85-.14.37-.14.62-.38.26-.25.38-.6.13-.34.13-.74 0-.95-.53-1.44-.52-.49-1.45-.49-.93 0-1.46.49-.53.49-.53 1.44 0 .4.13.74.13.35.38.6.25.24.62.38t.86.14Zm0-8.79q-.44 0-.76.14-.32.13-.53.36-.22.23-.32.53-.1.29-.1.62 0 .34.09.67.08.32.28.57.2.26.53.41.33.15.81.15.48 0 .81-.15.32-.15.52-.41.2-.25.29-.57.08-.33.08-.67 0-.33-.1-.62-.11-.3-.31-.53-.21-.23-.53-.36-.32-.14-.76-.14Zm1.95 4.18q1.06.34 1.56 1.05t.5 1.73q0 .77-.29 1.39-.29.63-.82 1.07-.53.44-1.27.68-.74.24-1.63.24-.9 0-1.64-.24-.74-.24-1.27-.68-.52-.44-.82-1.07-.29-.62-.29-1.39 0-1.02.51-1.73.5-.71 1.56-1.05-.84-.35-1.26-1-.42-.65-.42-1.56 0-.66.26-1.23.27-.56.75-.98.48-.42 1.15-.66.67-.24 1.47-.24.8 0 1.47.24.66.24 1.14.66.48.42.75.98.27.57.27 1.23 0 .91-.42 1.56t-1.26 1Zm7.33 4.61q.49 0 .85-.14.37-.14.62-.38.26-.25.38-.6.13-.34.13-.74 0-.95-.53-1.44-.52-.49-1.45-.49-.93 0-1.46.49-.53.49-.53 1.44 0 .4.13.74.13.35.38.6.25.24.62.38t.86.14Zm0-8.79q-.44 0-.76.14-.32.13-.53.36-.22.23-.32.53-.1.29-.1.62 0 .34.09.67.08.32.28.57.2.26.53.41.33.15.81.15.48 0 .81-.15.32-.15.52-.41.2-.25.29-.57.08-.33.08-.67 0-.33-.1-.62-.11-.3-.31-.53-.21-.23-.53-.36-.32-.14-.76-.14Zm1.95 4.18q1.06.34 1.56 1.05t.5 1.73q0 .77-.29 1.39-.29.63-.82 1.07-.53.44-1.27.68-.74.24-1.63.24-.9 0-1.64-.24-.74-.24-1.27-.68-.52-.44-.82-1.07-.29-.62-.29-1.39 0-1.02.51-1.73.5-.71 1.56-1.05-.84-.35-1.26-1-.42-.65-.42-1.56 0-.66.26-1.23.27-.56.75-.98.48-.42 1.15-.66.67-.24 1.47-.24.8 0 1.47.24.66.24 1.14.66.48.42.75.98.27.57.27 1.23 0 .91-.42 1.56t-1.26 1Z"/></svg>