<svg width="273" height="64" viewBox="0 0 273 64" fill="none" xmlns="http://www.w3.org/2000/svg">
<g clip-path="url(#clip0_73_3)">
<path fill-rule="evenodd" clip-rule="evenodd" d="M60.8785 41.9685C60.3291 37.4593 57.9326 33.2718 54.0163 30.9407C53.5199 30.6449 53.0191 30.3947 52.518 30.1848C50.4305 29.3099 48.3309 29.1322 46.4556 29.2864C40.7953 29.7513 37.9964 32.5323 33.6041 35.6366C28.575 38.7237 15.6465 49.556 9.7708 44.4408C4.83568 40.1446 7.33193 32.2275 13.434 29.9231C19.5357 27.6191 24.5184 30.5634 24.5184 30.5634C19.4095 27.9263 7.88574 30.7069 10.4126 37.0129C12.0194 41.0222 15.8135 40.1627 19.1977 38.4903C23.419 36.404 27.6101 32.8783 32.6266 32.8842C29.1049 25.257 9.10655 20.9562 1.95463 33.9568C1.69915 34.4217 1.46921 34.896 1.26483 35.3785C0.141888 38.0281 -0.213822 40.9092 0.122235 43.6699C0.671717 48.179 3.06814 52.3665 6.98448 54.6976C7.48129 54.993 7.98164 55.2437 8.48278 55.4536C16.8476 58.9596 29.7652 49.5431 38.8399 43.2693C42.6969 40.6024 46.7017 37.2557 51.23 41.1976C56.1655 45.4937 53.6688 53.4112 47.5668 55.7152C41.4647 58.0192 36.4824 55.075 36.4824 55.075C41.5912 57.7121 53.115 54.9318 50.5881 48.6255C48.9813 44.6161 45.1869 45.4757 41.8027 47.1481C37.5814 49.2343 33.3903 52.76 28.3738 52.7541C31.8955 60.3813 51.8942 64.6818 59.0458 51.6816C59.3012 51.2171 59.5312 50.7424 59.7356 50.2598C60.8585 47.6098 61.2146 44.7287 60.8782 41.9681" fill="url(#paint0_linear_73_3)"/>
<path fill-rule="evenodd" clip-rule="evenodd" d="M14.9335 0C20.9189 0 25.771 4.84301 25.771 10.817C25.771 16.7911 20.9189 21.6341 14.9335 21.6341C8.94816 21.6341 4.09558 16.7915 4.09558 10.817C4.09558 4.84262 8.94816 0 14.9335 0Z" fill="#FF2171"/>
<path fill-rule="evenodd" clip-rule="evenodd" d="M48.4032 7.50755C53.5879 7.50755 57.7912 11.7029 57.7912 16.8778C57.7912 22.0527 53.5879 26.248 48.4032 26.248C43.2185 26.248 39.0153 22.0527 39.0153 16.8778C39.0153 11.7029 43.2185 7.50755 48.4032 7.50755Z" fill="#FF2171"/>
</g>
<path d="M271.12 43.8477H273V44.5995H263.602V43.8477H265.482V33.3222C265.482 31.5429 265.219 30.2773 264.692 29.5255C264.166 28.7737 263.377 28.3978 262.324 28.3978C260.896 28.3978 259.755 29.1496 258.903 30.6532V43.8477H260.783V44.5995H251.385V43.8477H253.265V28.0594H251.385V27.3076H258.903V29.2624C259.38 28.6108 260.119 28.0594 261.121 27.6084C262.149 27.1322 263.251 26.8941 264.429 26.8941C268.89 26.8941 271.12 29.3125 271.12 34.1492V43.8477Z" fill="#282828"/>
<path d="M241.227 44.5995V42.6072C240.751 43.2838 239.999 43.8602 238.971 44.3364C237.969 44.7875 236.879 45.013 235.701 45.013C231.24 45.013 229.01 42.5947 229.01 37.758V28.0595H227.13V27.3076H234.648V38.585C234.648 40.3643 234.911 41.6298 235.438 42.3817C235.964 43.1335 236.753 43.5094 237.806 43.5094C239.209 43.5094 240.35 42.7576 241.227 41.2539V28.0595H239.347V27.3076H246.865V43.8477H248.745V44.5995H241.227Z" fill="#282828"/>
<path d="M219.484 44.5995H210.086V43.8477H211.966V28.0595H210.086V27.3076H217.605V31.781C217.83 30.553 218.231 29.5506 218.807 28.7737C219.409 27.9968 220.06 27.4831 220.762 27.2324C221.489 26.9818 222.178 26.8565 222.83 26.8565C223.506 26.8565 224.145 26.9818 224.747 27.2324C225.373 27.458 225.837 27.9341 226.138 28.6609C226.438 29.3626 226.451 30.0768 226.175 30.8036C225.9 31.5053 225.411 32.0065 224.709 32.3072C224.033 32.608 223.406 32.6456 222.83 32.42C222.253 32.1945 221.84 31.8937 221.589 31.5178C221.339 31.1169 221.163 30.741 221.063 30.3901C220.812 29.4629 220.474 28.9992 220.048 28.9992C219.572 28.9992 219.046 29.8262 218.469 31.4802C217.893 33.1092 217.605 34.8384 217.605 36.6678V43.8477H219.484V44.5995Z" fill="#282828"/>
<path d="M195.07 42.3441C195.622 43.5971 196.574 44.2236 197.927 44.2236C199.281 44.2236 200.245 43.5846 200.822 42.3065C201.398 41.0284 201.686 38.9233 201.686 35.9912C201.686 33.034 201.398 30.9164 200.822 29.6383C200.245 28.3351 199.281 27.6836 197.927 27.6836C196.574 27.6836 195.622 28.3351 195.07 29.6383C194.519 30.9164 194.243 33.034 194.243 35.9912C194.243 38.9484 194.519 41.066 195.07 42.3441ZM197.852 44.9755C195.471 44.9755 193.316 44.1986 191.386 42.6448C189.457 41.091 188.492 38.8857 188.492 36.0288C188.492 34.5001 188.768 33.1343 189.319 31.9313C189.895 30.7284 190.647 29.7761 191.574 29.0744C192.527 28.3727 193.542 27.8464 194.619 27.4956C195.697 27.1197 196.8 26.9317 197.927 26.9317C199.055 26.9317 200.158 27.1197 201.235 27.4956C202.338 27.8464 203.353 28.3727 204.28 29.0744C205.233 29.7761 205.997 30.7284 206.573 31.9313C207.15 33.1343 207.438 34.4875 207.438 35.9912C207.438 37.4948 207.15 38.8356 206.573 40.0134C205.997 41.1913 205.233 42.1311 204.28 42.8328C202.376 44.2612 200.233 44.9755 197.852 44.9755Z" fill="#282828"/>
<path d="M187.002 43.8477V44.5995H177.228V43.8477H178.92L173.92 34.7131L172.341 36.7054V43.8477H174.221V44.5995H164.823V43.8477H166.702V24.3003H164.823V23.5485H174.221V24.3003H172.341V35.3897L181.062 24.3003H177.604V23.5485H185.272V24.3003H182.077L177.641 29.939L185.385 43.8477H187.002Z" fill="#282828"/>
<path d="M160.3 43.8477H162.18V44.5995H152.782V43.8477H154.661V28.0595H153.158V27.3076H160.3V43.8477ZM160.638 22.3456C160.638 23.2478 160.313 24.0247 159.661 24.6763C159.035 25.3028 158.258 25.616 157.33 25.616C156.428 25.616 155.651 25.3028 155 24.6763C154.348 24.0247 154.022 23.2478 154.022 22.3456C154.022 21.4184 154.348 20.6289 155 19.9774C155.651 19.3258 156.428 19 157.33 19C158.258 19 159.035 19.3258 159.661 19.9774C160.313 20.6289 160.638 21.4184 160.638 22.3456Z" fill="#282828"/>
<path d="M137.787 45.0506C135.757 45.0506 134.003 44.2487 132.524 42.6448C131.046 41.0409 130.307 38.7729 130.307 35.8408C130.307 32.9087 131.033 30.6156 132.487 28.9616C133.94 27.3076 135.707 26.4806 137.787 26.4806C138.815 26.4806 139.779 26.6936 140.682 27.1197C141.584 27.5457 142.235 28.1848 142.636 29.0368V20.1653H140.757V19.4135H148.275V43.8477H150.155V44.5995H142.636V42.8703C141.96 44.3239 140.343 45.0506 137.787 45.0506ZM142.636 36.3671V30.1646C141.96 28.8113 141.07 28.1346 139.967 28.1346C138.89 28.1346 137.963 28.7612 137.186 30.0142C136.409 31.2672 136.02 33.2596 136.02 35.9912C136.02 38.6977 136.421 40.6775 137.223 41.9306C138.025 43.1836 138.99 43.7224 140.118 43.547C140.744 43.4467 141.22 43.2463 141.546 42.9455C142.273 42.2438 142.636 40.051 142.636 36.3671Z" fill="#282828"/>
<path d="M128.43 43.8477C128.179 44.0983 127.703 44.3239 127.001 44.5244C126.3 44.6998 125.485 44.7875 124.558 44.7875C122.503 44.7875 121.212 44.1735 120.686 42.9455C119.433 44.2487 117.516 44.9003 114.935 44.9003C113.556 44.9003 112.416 44.587 111.514 43.9605C110.637 43.3089 110.198 42.3566 110.198 41.1036C110.198 39.4245 110.85 38.1339 112.153 37.2317C113.456 36.3044 115.737 35.6529 118.995 35.277L120.498 35.089V33.247C120.498 31.0667 120.335 29.6007 120.01 28.8489C119.684 28.0971 119.032 27.7211 118.055 27.7211C117.102 27.7211 116.488 27.859 116.213 28.1346C115.937 28.3853 115.837 28.686 115.912 29.0368C115.987 29.3626 116.113 29.8012 116.288 30.3525C116.463 30.9039 116.551 31.3424 116.551 31.6682C116.551 32.4451 116.275 33.1092 115.724 33.6605C115.198 34.1868 114.546 34.4499 113.769 34.4499C113.018 34.4499 112.366 34.1868 111.815 33.6605C111.263 33.1092 110.988 32.4451 110.988 31.6682C110.988 30.3901 111.639 29.3 112.942 28.3978C114.271 27.4705 116.238 27.0069 118.844 27.0069C121.476 27.0069 123.343 27.5207 124.445 28.5481C125.573 29.5756 126.137 31.3925 126.137 33.9989V40.7653C126.137 42.0935 126.3 42.933 126.626 43.2839C126.951 43.6096 127.553 43.6723 128.43 43.4718V43.8477ZM115.423 40.3518C115.549 41.3041 115.9 42.0434 116.476 42.5696C117.052 43.0708 117.716 43.3214 118.468 43.3214C119.245 43.3214 119.922 42.9455 120.498 42.1937V35.8032L119.145 35.9912C117.992 36.1415 117.052 36.5801 116.326 37.3069C115.624 38.0336 115.323 39.0486 115.423 40.3518Z" fill="#282828"/>
<path d="M105.705 43.8477H107.585V44.5995H98.1868V43.8477H100.066V33.3222C100.066 31.5429 99.8033 30.2773 99.277 29.5255C98.7507 28.7737 97.9613 28.3978 96.9087 28.3978C95.4803 28.3978 94.34 29.1496 93.4879 30.6532V43.8477H95.3675V44.5995H85.9697V43.8477H87.8493V20.1653H85.9697V19.4135H93.4879V29.2624C93.9641 28.5857 94.7034 28.0219 95.7058 27.5708C96.7083 27.1197 97.8109 26.8941 99.0138 26.8941C103.475 26.8941 105.705 29.3125 105.705 34.1492V43.8477Z" fill="#282828"/>
<path d="M66.5118 44.5996H65.76V35.8408H66.5118C66.5118 38.1965 67.3514 40.2014 69.0304 41.8554C70.7346 43.5094 72.8021 44.3364 75.233 44.3364C76.2354 44.3364 77.0373 44.0482 77.6388 43.4718C78.2653 42.8704 78.5786 42.0809 78.5786 41.1036C78.5786 40.0009 77.8643 39.0611 76.4359 38.2842C75.659 37.8833 74.3182 37.2568 72.4136 36.4047C70.509 35.5276 69.1683 34.7883 68.3914 34.1868C66.8376 32.9839 66.1485 31.3925 66.3239 29.4127C66.5244 27.4329 67.2762 25.9042 68.5793 24.8266C69.8825 23.724 71.3486 23.1726 72.9775 23.1726C74.6315 23.1726 76.1101 23.3982 77.4132 23.8493C78.7415 24.2753 79.4933 24.4883 79.6687 24.4883C80.1699 24.4883 80.4205 24.0497 80.4205 23.1726H81.1724V30.0518H80.4205C80.4205 28.2474 79.7564 26.7814 78.4282 25.6536C77.1 24.5008 75.3959 23.9244 73.3158 23.9244C72.3886 23.9244 71.6618 24.2001 71.1355 24.7515C70.6093 25.2777 70.3461 25.8667 70.3461 26.5182C70.3461 27.1698 70.4338 27.671 70.6093 28.0219C70.7847 28.3727 71.0854 28.6985 71.5114 28.9992C71.9625 29.2749 72.351 29.5005 72.6768 29.6759C73.0026 29.8513 73.5163 30.0894 74.218 30.3901C74.9448 30.6908 75.446 30.9039 75.7217 31.0292C77.1 31.6557 77.9145 32.0316 78.1651 32.1569C78.4157 32.2571 78.7791 32.4326 79.2552 32.6832C79.7314 32.9338 80.0822 33.1593 80.3078 33.3598C80.5584 33.5603 80.8716 33.8109 81.2475 34.1116C81.6235 34.4124 81.8991 34.7256 82.0745 35.0514C82.25 35.3521 82.4254 35.703 82.6008 36.104C82.9517 36.9059 83.077 37.8457 82.9767 38.9233C82.7762 40.9532 82.0119 42.507 80.6837 43.5846C79.3805 44.6371 77.6137 45.1634 75.3833 45.1634C73.3785 45.1634 71.3861 44.6497 69.4063 43.6222C68.7297 43.2713 68.2285 43.0959 67.9027 43.0959C66.9755 43.0959 66.5118 43.5971 66.5118 44.5996Z" fill="#282828"/>
<defs>
<linearGradient id="paint0_linear_73_3" x1="1.33772" y1="25.7143" x2="48.182" y2="50.5796" gradientUnits="userSpaceOnUse">
<stop stop-color="#F31559"/>
<stop offset="1" stop-color="#F11A7B"/>
</linearGradient>
<clipPath id="clip0_73_3">
<rect width="61" height="60" fill="white"/>
</clipPath>
</defs>
</svg>
